<!--Scalable Vector Graphic-->
<svg xmlns="http://www.w3.org/2000/svg" id="logo" data-name="logo" viewBox="0 0 128.28 53.1">
	<defs><style>.cls-1{fill:#353535;}</style></defs>
	<g class="lcale">
		<g class="ldigital">
			<path class="cls-1 lD" d="M15.75,19.2h8.44c5.78,0,9.5,4.66,9.5,11,0,3.52-1.18,6.6-3.45,8.51a9.66,9.66,0,0,1-6.41,2.09H15.75Zm7.78,17.85c4.11,0,5.71-2.51,5.71-6.81S27.37,23,23.65,23H20.14v14.1Z"/><path class="cls-1 lI" d="M35.75,19.2h4.12v3.69H35.75Zm0,6.11h4.12V40.84H35.75Z"/><path class="cls-1 lG" d="M42.11,41.29h4.08c.34,1,1.21,1.72,3.12,1.72,2.33,0,3.45-1.12,3.45-3.23v-1.7h-.09a5,5,0,0,1-4.06,1.82c-3.45,0-6.83-2.73-6.83-7.42s2.78-7.59,6.71-7.59A5,5,0,0,1,52.79,27h.06V25.31h4V39.66A6,6,0,0,1,55,44.38a8.13,8.13,0,0,1-5.6,1.75C45.13,46.13,42.53,44.32,42.11,41.29ZM53,32.39c0-2.27-1.21-4.2-3.69-4.2-2.09,0-3.48,1.63-3.48,4.23s1.39,4.18,3.51,4.18C51.91,36.6,53,34.69,53,32.39Z"/><path class="cls-1 lI2" d="M59.48,19.2h4.11v3.69H59.48Zm0,6.11h4.11V40.84H59.48Z"/><path class="cls-1 lT" d="M65.35,25.31H67.5V20.47h4v4.84h2.67V28H71.52v8.23a1.36,1.36,0,0,0,1.55,1.54c.51,0,1.21,0,1.21,0v3s-.94.06-2.58.06c-2,0-4.2-.79-4.2-3.73V28H65.35Z"/><path class="cls-1 lA" d="M85.75,39.11h-.06c-.79,1.18-1.91,2.09-4.57,2.09-3.18,0-5.42-1.67-5.42-4.75,0-3.42,2.78-4.51,6.23-5,2.57-.37,3.76-.58,3.76-1.76s-.88-1.84-2.61-1.84c-1.93,0-2.87.69-3,2.17H76.43c.12-2.72,2.14-5.11,6.68-5.11s6.54,2.09,6.54,5.72v7.9c0,1.18.18,1.87.54,2.14v.16h-4A4.28,4.28,0,0,1,85.75,39.11Zm0-3.75V33a12.05,12.05,0,0,1-2.88.91c-2.15.48-3.21,1-3.21,2.42s1,2,2.42,2C84.47,38.32,85.78,36.87,85.78,35.36Z"/><path class="cls-1 lL" d="M92.31,19.2h4.12V40.84H92.31Z"/></g>
		<g id="lkropka"><rect class="cls-1 kropka" x="7.67" y="36.7" width="4.13" height="4.13"/></g>
		<g class="l214"><path class="cls-1 l2" d="M104.22,13.86c1.23-1,2.58-1.67,2.58-2.93,0-.92-.48-1.53-1.36-1.53s-1.58.71-1.61,2H102c0-2.24,1.15-3.66,3.48-3.66a3.1,3.1,0,0,1,3.35,3.14c0,1.85-1.27,2.73-2.47,3.53a6,6,0,0,0-2,1.75h4.53v1.61h-7.06A5.16,5.16,0,0,1,104.22,13.86Z"/><path class="cls-1 l1" d="M112,10.9h-2.22V9.61c1.2,0,2.28-.49,2.48-1.75H114v9.9h-2Z"/><path class="cls-1 l4" d="M119.9,15.62h-4.54V13.51l4.46-5.69h2v6.24h1.5v1.56h-1.5v2.14h-1.9Zm-3-1.56h3V10.24h0L116.94,14Z"/></g>
	</g>
</svg>
